<?xml version="1.0" encoding="utf-8"?>
<!-- Generator: Adobe Illustrator 17.0.0, SVG Export Plug-In . SVG Version: 6.00 Build 0)  -->
<!DOCTYPE svg PUBLIC "-//W3C//DTD SVG 1.0//EN" "http://www.w3.org/TR/2001/REC-SVG-20010904/DTD/svg10.dtd">
<svg version="1.0" id="Layer_1" xmlns="http://www.w3.org/2000/svg" xmlns:xlink="http://www.w3.org/1999/xlink" x="0px" y="0px"
	 width="686.966px" height="500.975px" viewBox="0 0 686.966 500.975" enable-background="new 0 0 686.966 500.975"
	 xml:space="preserve">
<g>
	<defs>
		<rect id="SVGID_1_" x="22.393" y="23.138" width="636" height="464"/>
	</defs>
	<clipPath id="SVGID_2_">
		<use xlink:href="#SVGID_1_"  overflow="visible"/>
	</clipPath>
	<rect x="24.393" y="25.138" clip-path="url(#SVGID_2_)" fill="#AAAAAA" width="65.055" height="20.335"/>
	<rect x="89.448" y="25.138" clip-path="url(#SVGID_2_)" fill="#AAAAAA" width="94.592" height="20.335"/>
	<rect x="184.04" y="25.138" clip-path="url(#SVGID_2_)" fill="#AAAAAA" width="94.592" height="20.335"/>
	<rect x="278.632" y="25.138" clip-path="url(#SVGID_2_)" fill="#AAAAAA" width="94.592" height="20.335"/>
	<rect x="373.224" y="25.138" clip-path="url(#SVGID_2_)" fill="#AAAAAA" width="94.592" height="20.335"/>
	<rect x="467.816" y="25.138" clip-path="url(#SVGID_2_)" fill="#AAAAAA" width="94.592" height="20.335"/>
	<rect x="562.408" y="25.138" clip-path="url(#SVGID_2_)" fill="#AAAAAA" width="94.592" height="20.335"/>
	<rect x="562.408" y="65.683" clip-path="url(#SVGID_2_)" fill="#09CBCF" width="94.592" height="59.88"/>
	<rect x="184.04" y="85.643" clip-path="url(#SVGID_2_)" fill="#09CBCF" width="94.592" height="59.88"/>
	<rect x="89.448" y="105.603" clip-path="url(#SVGID_2_)" fill="#8A99FF" width="94.592" height="59.88"/>
	<rect x="373.224" y="105.603" clip-path="url(#SVGID_2_)" fill="#8A99FF" width="94.592" height="59.88"/>
	<rect x="562.408" y="125.562" clip-path="url(#SVGID_2_)" fill="#FE5FD5" width="94.592" height="59.88"/>
	<rect x="278.632" y="225.362" clip-path="url(#SVGID_2_)" fill="#FF9E41" width="94.592" height="31.589"/>
	<rect x="373.224" y="225.362" clip-path="url(#SVGID_2_)" fill="#FF9E41" width="94.592" height="31.589"/>
	<rect x="89.448" y="424.961" clip-path="url(#SVGID_2_)" fill="#09CBCF" width="94.592" height="60.005"/>
	<rect x="278.632" y="424.961" clip-path="url(#SVGID_2_)" fill="#FE5FD5" width="94.592" height="60.005"/>
	<rect x="373.224" y="424.961" clip-path="url(#SVGID_2_)" fill="#09CBCF" width="94.592" height="60.005"/>
</g>
<g>
	<defs>
		<rect id="SVGID_3_" x="24.643" y="25.388" width="64.805" height="19.71"/>
	</defs>
	<clipPath id="SVGID_4_">
		<use xlink:href="#SVGID_3_"  overflow="visible"/>
	</clipPath>
	<g clip-path="url(#SVGID_4_)">
		<text transform="matrix(1 0 0 1 44.3925 38.8979)" fill="#FFFFFF" font-family="'HelveticaNeue-Bold'" font-size="10">TIME</text>
	</g>
</g>
<g>
	<defs>
		<rect id="SVGID_5_" x="89.448" y="25.388" width="94.592" height="19.71"/>
	</defs>
	<clipPath id="SVGID_6_">
		<use xlink:href="#SVGID_5_"  overflow="visible"/>
	</clipPath>
	<g clip-path="url(#SVGID_6_)">
		<text transform="matrix(1 0 0 1 114.3925 38.8979)"><tspan x="0" y="0" fill="#FFFFFF" font-family="'HelveticaNeue-Bold'" font-size="10">MOND</tspan><tspan x="31.67" y="0" fill="#FFFFFF" font-family="'HelveticaNeue-Bold'" font-size="10">A</tspan><tspan x="37.79" y="0" fill="#FFFFFF" font-family="'HelveticaNeue-Bold'" font-size="10">Y</tspan></text>
	</g>
</g>
<g>
	<defs>
		<rect id="SVGID_7_" x="184.04" y="25.388" width="94.592" height="19.71"/>
	</defs>
	<clipPath id="SVGID_8_">
		<use xlink:href="#SVGID_7_"  overflow="visible"/>
	</clipPath>
	<g clip-path="url(#SVGID_8_)">
		<text transform="matrix(1 0 0 1 208.3925 38.8979)"><tspan x="0" y="0" fill="#FFFFFF" font-family="'HelveticaNeue-Bold'" font-size="10">TUESD</tspan><tspan x="33.9" y="0" fill="#FFFFFF" font-family="'HelveticaNeue-Bold'" font-size="10">A</tspan><tspan x="40.02" y="0" fill="#FFFFFF" font-family="'HelveticaNeue-Bold'" font-size="10">Y</tspan></text>
	</g>
</g>
<g>
	<defs>
		<rect id="SVGID_9_" x="278.632" y="25.388" width="94.592" height="19.71"/>
	</defs>
	<clipPath id="SVGID_10_">
		<use xlink:href="#SVGID_9_"  overflow="visible"/>
	</clipPath>
	<g clip-path="url(#SVGID_10_)">
		<text transform="matrix(1 0 0 1 294.3925 38.8979)"><tspan x="0" y="0" fill="#FFFFFF" font-family="'HelveticaNeue-Bold'" font-size="10">WEDNESD</tspan><tspan x="51.12" y="0" fill="#FFFFFF" font-family="'HelveticaNeue-Bold'" font-size="10">A</tspan><tspan x="57.24" y="0" fill="#FFFFFF" font-family="'HelveticaNeue-Bold'" font-size="10">Y</tspan></text>
	</g>
</g>
<g>
	<defs>
		<rect id="SVGID_11_" x="373.224" y="25.388" width="94.592" height="19.71"/>
	</defs>
	<clipPath id="SVGID_12_">
		<use xlink:href="#SVGID_11_"  overflow="visible"/>
	</clipPath>
	<g clip-path="url(#SVGID_12_)">
		<text transform="matrix(1 0 0 1 393.3925 38.8979)"><tspan x="0" y="0" fill="#FFFFFF" font-family="'HelveticaNeue-Bold'" font-size="10">THURSD</tspan><tspan x="42.05" y="0" fill="#FFFFFF" font-family="'HelveticaNeue-Bold'" font-size="10">A</tspan><tspan x="48.169" y="0" fill="#FFFFFF" font-family="'HelveticaNeue-Bold'" font-size="10">Y</tspan></text>
	</g>
</g>
<g>
	<defs>
		<rect id="SVGID_13_" x="467.816" y="25.388" width="94.592" height="19.71"/>
	</defs>
	<clipPath id="SVGID_14_">
		<use xlink:href="#SVGID_13_"  overflow="visible"/>
	</clipPath>
	<g clip-path="url(#SVGID_14_)">
		<text transform="matrix(1 0 0 1 497.3925 38.8979)"><tspan x="0" y="0" fill="#FFFFFF" font-family="'HelveticaNeue-Bold'" font-size="10">FRID</tspan><tspan x="23.51" y="0" fill="#FFFFFF" font-family="'HelveticaNeue-Bold'" font-size="10">A</tspan><tspan x="29.63" y="0" fill="#FFFFFF" font-family="'HelveticaNeue-Bold'" font-size="10">Y</tspan></text>
	</g>
</g>
<g>
	<defs>
		<rect id="SVGID_15_" x="562.408" y="25.388" width="94.342" height="19.71"/>
	</defs>
	<clipPath id="SVGID_16_">
		<use xlink:href="#SVGID_15_"  overflow="visible"/>
	</clipPath>
	<g clip-path="url(#SVGID_16_)">
		<text transform="matrix(1 0 0 1 583.3925 38.8979)"><tspan x="0" y="0" fill="#FFFFFF" font-family="'HelveticaNeue-Bold'" font-size="10">S</tspan><tspan x="6.49" y="0" fill="#FFFFFF" font-family="'HelveticaNeue-Bold'" font-size="10">A</tspan><tspan x="12.42" y="0" fill="#FFFFFF" font-family="'HelveticaNeue-Bold'" font-size="10">TURD</tspan><tspan x="40.569" y="0" fill="#FFFFFF" font-family="'HelveticaNeue-Bold'" font-size="10">A</tspan><tspan x="46.68" y="0" fill="#FFFFFF" font-family="'HelveticaNeue-Bold'" font-size="10">Y</tspan></text>
	</g>
</g>
<g>
	<defs>
		<rect id="SVGID_17_" x="24.643" y="45.848" width="64.43" height="19.71"/>
	</defs>
	<clipPath id="SVGID_18_">
		<use xlink:href="#SVGID_17_"  overflow="visible"/>
	</clipPath>
	<g clip-path="url(#SVGID_18_)">
		<text transform="matrix(1 0 0 1 38.3925 58.8979)" fill="#606060" font-family="'HelveticaNeue-Medium'" font-size="10">8:00 am</text>
	</g>
</g>
<g>
	<defs>
		<rect id="SVGID_19_" x="24.643" y="65.808" width="64.43" height="19.71"/>
	</defs>
	<clipPath id="SVGID_20_">
		<use xlink:href="#SVGID_19_"  overflow="visible"/>
	</clipPath>
	<g clip-path="url(#SVGID_20_)">
		<text transform="matrix(1 0 0 1 38.3925 78.8979)" fill="#606060" font-family="'HelveticaNeue-Medium'" font-size="10">8:30 am</text>
	</g>
</g>
<g>
	<defs>
		<rect id="SVGID_21_" x="562.533" y="65.808" width="94.217" height="59.63"/>
	</defs>
	<clipPath id="SVGID_22_">
		<use xlink:href="#SVGID_21_"  overflow="visible"/>
	</clipPath>
	<g clip-path="url(#SVGID_22_)">
		<text transform="matrix(1 0 0 1 600.3925 92.8979)" fill="#FFFFFF" font-family="'HelveticaNeue-Medium'" font-size="10">8:30            </text>
	</g>
	<g clip-path="url(#SVGID_22_)">
		<text transform="matrix(1 0 0 1 576.3925 104.8979)" fill="#FFFFFF" font-family="'HelveticaNeue-Medium'" font-size="10">BARRE BASIC</text>
	</g>
</g>
<g>
	<defs>
		<rect id="SVGID_23_" x="24.643" y="85.768" width="64.43" height="19.71"/>
	</defs>
	<clipPath id="SVGID_24_">
		<use xlink:href="#SVGID_23_"  overflow="visible"/>
	</clipPath>
	<g clip-path="url(#SVGID_24_)">
		<text transform="matrix(1 0 0 1 38.3925 98.8979)" fill="#606060" font-family="'HelveticaNeue-Medium'" font-size="10">9:00 am</text>
	</g>
</g>
<g>
	<defs>
		<rect id="SVGID_25_" x="184.165" y="85.768" width="94.342" height="59.63"/>
	</defs>
	<clipPath id="SVGID_26_">
		<use xlink:href="#SVGID_25_"  overflow="visible"/>
	</clipPath>
	<g clip-path="url(#SVGID_26_)">
		<text transform="matrix(1 0 0 1 221.3925 112.8979)" fill="#FFFFFF" font-family="'HelveticaNeue-Medium'" font-size="10">9:00            </text>
	</g>
	<g clip-path="url(#SVGID_26_)">
		<text transform="matrix(1 0 0 1 197.3925 124.8979)" fill="#FFFFFF" font-family="'HelveticaNeue-Medium'" font-size="10">BARRE BASIC</text>
	</g>
</g>
<g>
	<defs>
		<rect id="SVGID_27_" x="24.643" y="105.728" width="64.43" height="19.71"/>
	</defs>
	<clipPath id="SVGID_28_">
		<use xlink:href="#SVGID_27_"  overflow="visible"/>
	</clipPath>
	<g clip-path="url(#SVGID_28_)">
		<text transform="matrix(1 0 0 1 38.3925 118.8979)" fill="#606060" font-family="'HelveticaNeue-Medium'" font-size="10">9:30 am</text>
	</g>
</g>
<g>
	<defs>
		<rect id="SVGID_29_" x="89.823" y="105.728" width="94.092" height="59.63"/>
	</defs>
	<clipPath id="SVGID_30_">
		<use xlink:href="#SVGID_29_"  overflow="visible"/>
	</clipPath>
	<g clip-path="url(#SVGID_30_)">
		<text transform="matrix(1 0 0 1 127.3925 132.8979)" fill="#FFFFFF" font-family="'HelveticaNeue-Medium'" font-size="10">9:30             </text>
	</g>
	<g clip-path="url(#SVGID_30_)">
		<text transform="matrix(1 0 0 1 97.3925 144.8979)" fill="#FFFFFF" font-family="'HelveticaNeue-Medium'" font-size="10">BARRE CLASSIC</text>
	</g>
</g>
<g>
	<defs>
		<rect id="SVGID_31_" x="373.349" y="105.728" width="94.342" height="59.63"/>
	</defs>
	<clipPath id="SVGID_32_">
		<use xlink:href="#SVGID_31_"  overflow="visible"/>
	</clipPath>
	<g clip-path="url(#SVGID_32_)">
		<text transform="matrix(1 0 0 1 410.3925 132.8979)" fill="#FFFFFF" font-family="'HelveticaNeue-Medium'" font-size="10">9:30             </text>
	</g>
	<g clip-path="url(#SVGID_32_)">
		<text transform="matrix(1 0 0 1 380.3925 144.8979)" fill="#FFFFFF" font-family="'HelveticaNeue-Medium'" font-size="10">BARRE CLASSIC</text>
	</g>
</g>
<g>
	<defs>
		<rect id="SVGID_33_" x="24.643" y="125.688" width="64.43" height="19.71"/>
	</defs>
	<clipPath id="SVGID_34_">
		<use xlink:href="#SVGID_33_"  overflow="visible"/>
	</clipPath>
	<g clip-path="url(#SVGID_34_)">
		<text transform="matrix(1 0 0 1 35.3925 138.8979)" fill="#606060" font-family="'HelveticaNeue-Medium'" font-size="10">10:00 am</text>
	</g>
</g>
<g>
	<defs>
		<rect id="SVGID_35_" x="562.533" y="125.687" width="94.217" height="59.63"/>
	</defs>
	<clipPath id="SVGID_36_">
		<use xlink:href="#SVGID_35_"  overflow="visible"/>
	</clipPath>
	<g clip-path="url(#SVGID_36_)">
		<text transform="matrix(1 0 0 1 600.3925 152.8979)" fill="#FFFFFF" font-family="'HelveticaNeue-Medium'" font-size="10">9:30             </text>
	</g>
	<g clip-path="url(#SVGID_36_)">
		<text transform="matrix(1 0 0 1 572.3925 164.8979)"><tspan x="0" y="0" fill="#FFFFFF" font-family="'HelveticaNeue-Medium'" font-size="10">BARRE </tspan><tspan x="36.87" y="0" fill="#FFFFFF" font-family="'HelveticaNeue-Medium'" font-size="10">A</tspan><tspan x="42.629" y="0" fill="#FFFFFF" font-family="'HelveticaNeue-Medium'" font-size="10">T</tspan><tspan x="48.56" y="0" fill="#FFFFFF" font-family="'HelveticaNeue-Medium'" font-size="10">T</tspan><tspan x="53.579" y="0" fill="#FFFFFF" font-family="'HelveticaNeue-Medium'" font-size="10">ACK</tspan></text>
	</g>
</g>
<g>
	<defs>
		<rect id="SVGID_37_" x="24.643" y="145.647" width="64.43" height="19.71"/>
	</defs>
	<clipPath id="SVGID_38_">
		<use xlink:href="#SVGID_37_"  overflow="visible"/>
	</clipPath>
	<g clip-path="url(#SVGID_38_)">
		<text transform="matrix(1 0 0 1 35.3925 158.8979)" fill="#606060" font-family="'HelveticaNeue-Medium'" font-size="10">10:30 am</text>
	</g>
</g>
<g>
	<defs>
		<rect id="SVGID_39_" x="24.643" y="165.607" width="64.43" height="19.71"/>
	</defs>
	<clipPath id="SVGID_40_">
		<use xlink:href="#SVGID_39_"  overflow="visible"/>
	</clipPath>
	<g clip-path="url(#SVGID_40_)">
		<text transform="matrix(1 0 0 1 35.3925 178.8979)" fill="#606060" font-family="'HelveticaNeue-Medium'" font-size="10">11:00 am</text>
	</g>
</g>
<g>
	<defs>
		<rect id="SVGID_41_" x="24.643" y="185.567" width="64.43" height="19.71"/>
	</defs>
	<clipPath id="SVGID_42_">
		<use xlink:href="#SVGID_41_"  overflow="visible"/>
	</clipPath>
	<g clip-path="url(#SVGID_42_)">
		<text transform="matrix(1 0 0 1 35.3925 198.8979)" fill="#606060" font-family="'HelveticaNeue-Medium'" font-size="10">11:30 am</text>
	</g>
</g>
<g>
	<defs>
		<rect id="SVGID_43_" x="24.643" y="205.527" width="64.43" height="19.71"/>
	</defs>
	<clipPath id="SVGID_44_">
		<use xlink:href="#SVGID_43_"  overflow="visible"/>
	</clipPath>
	<g clip-path="url(#SVGID_44_)">
		<text transform="matrix(1 0 0 1 35.3925 218.8979)" fill="#606060" font-family="'HelveticaNeue-Medium'" font-size="10">12:00 pm</text>
	</g>
</g>
<g>
	<defs>
		<rect id="SVGID_45_" x="24.643" y="225.487" width="64.43" height="19.71"/>
	</defs>
	<clipPath id="SVGID_46_">
		<use xlink:href="#SVGID_45_"  overflow="visible"/>
	</clipPath>
	<g clip-path="url(#SVGID_46_)">
		<text transform="matrix(1 0 0 1 35.3925 238.8979)" fill="#606060" font-family="'HelveticaNeue-Medium'" font-size="10">12:30 pm</text>
	</g>
</g>
<g>
	<defs>
		<rect id="SVGID_47_" x="278.757" y="225.487" width="94.342" height="59.63"/>
	</defs>
	<clipPath id="SVGID_48_">
		<use xlink:href="#SVGID_47_"  overflow="visible"/>
	</clipPath>
	<g clip-path="url(#SVGID_48_)">
		<text transform="matrix(1 0 0 1 313.3925 238.8979)" fill="#FFFFFF" font-family="'HelveticaNeue-Medium'" font-size="10">12:30             </text>
	</g>
	<g clip-path="url(#SVGID_48_)">
		<text transform="matrix(1 0 0 1 284.3925 250.8979)" fill="#FFFFFF" font-family="'HelveticaNeue-Medium'" font-size="10">BARRE EXPRESS</text>
	</g>
</g>
<g>
	<defs>
		<rect id="SVGID_49_" x="373.349" y="225.487" width="94.342" height="59.63"/>
	</defs>
	<clipPath id="SVGID_50_">
		<use xlink:href="#SVGID_49_"  overflow="visible"/>
	</clipPath>
	<g clip-path="url(#SVGID_50_)">
		<text transform="matrix(1 0 0 1 408.3925 238.8979)" fill="#FFFFFF" font-family="'HelveticaNeue-Medium'" font-size="10">12:30             </text>
		<text transform="matrix(1 0 0 1 379.3925 250.8979)" fill="#FFFFFF" font-family="'HelveticaNeue-Medium'" font-size="10">BARRE EXPRESS</text>
	</g>
</g>
<g>
	<defs>
		<rect id="SVGID_51_" x="24.643" y="245.447" width="64.43" height="19.71"/>
	</defs>
	<clipPath id="SVGID_52_">
		<use xlink:href="#SVGID_51_"  overflow="visible"/>
	</clipPath>
	<g clip-path="url(#SVGID_52_)">
		<text transform="matrix(1 0 0 1 38.3925 258.8979)" fill="#606060" font-family="'HelveticaNeue-Medium'" font-size="10">1:00 pm</text>
	</g>
</g>
<g>
	<defs>
		<rect id="SVGID_53_" x="24.643" y="265.407" width="64.43" height="19.71"/>
	</defs>
	<clipPath id="SVGID_54_">
		<use xlink:href="#SVGID_53_"  overflow="visible"/>
	</clipPath>
	<g clip-path="url(#SVGID_54_)">
		<text transform="matrix(1 0 0 1 38.3925 278.8979)" fill="#606060" font-family="'HelveticaNeue-Medium'" font-size="10">1:30 pm</text>
	</g>
</g>
<g>
	<defs>
		<rect id="SVGID_55_" x="24.643" y="285.367" width="64.43" height="19.71"/>
	</defs>
	<clipPath id="SVGID_56_">
		<use xlink:href="#SVGID_55_"  overflow="visible"/>
	</clipPath>
	<g clip-path="url(#SVGID_56_)">
		<text transform="matrix(1 0 0 1 38.3925 298.8979)" fill="#606060" font-family="'HelveticaNeue-Medium'" font-size="10">2:00 pm</text>
	</g>
</g>
<g>
	<defs>
		<rect id="SVGID_57_" x="24.643" y="305.327" width="64.43" height="19.71"/>
	</defs>
	<clipPath id="SVGID_58_">
		<use xlink:href="#SVGID_57_"  overflow="visible"/>
	</clipPath>
	<g clip-path="url(#SVGID_58_)">
		<text transform="matrix(1 0 0 1 38.3925 318.8979)" fill="#606060" font-family="'HelveticaNeue-Medium'" font-size="10">2:30 pm</text>
	</g>
</g>
<g>
	<defs>
		<rect id="SVGID_59_" x="24.643" y="325.287" width="64.43" height="19.71"/>
	</defs>
	<clipPath id="SVGID_60_">
		<use xlink:href="#SVGID_59_"  overflow="visible"/>
	</clipPath>
	<g clip-path="url(#SVGID_60_)">
		<text transform="matrix(1 0 0 1 38.3925 338.8979)" fill="#606060" font-family="'HelveticaNeue-Medium'" font-size="10">3:00 pm</text>
	</g>
</g>
<g>
	<defs>
		<rect id="SVGID_61_" x="24.643" y="345.247" width="64.43" height="19.71"/>
	</defs>
	<clipPath id="SVGID_62_">
		<use xlink:href="#SVGID_61_"  overflow="visible"/>
	</clipPath>
	<g clip-path="url(#SVGID_62_)">
		<text transform="matrix(1 0 0 1 38.3925 358.8979)" fill="#606060" font-family="'HelveticaNeue-Medium'" font-size="10">3:30 pm</text>
	</g>
</g>
<g>
	<defs>
		<rect id="SVGID_63_" x="24.643" y="365.207" width="64.43" height="19.71"/>
	</defs>
	<clipPath id="SVGID_64_">
		<use xlink:href="#SVGID_63_"  overflow="visible"/>
	</clipPath>
	<g clip-path="url(#SVGID_64_)">
		<text transform="matrix(1 0 0 1 38.3925 378.8979)" fill="#606060" font-family="'HelveticaNeue-Medium'" font-size="10">4:00 pm</text>
	</g>
</g>
<g>
	<defs>
		<rect id="SVGID_65_" x="24.643" y="385.167" width="64.43" height="19.71"/>
	</defs>
	<clipPath id="SVGID_66_">
		<use xlink:href="#SVGID_65_"  overflow="visible"/>
	</clipPath>
	<g clip-path="url(#SVGID_66_)">
		<text transform="matrix(1 0 0 1 38.3925 398.8979)" fill="#606060" font-family="'HelveticaNeue-Medium'" font-size="10">4:30 pm</text>
	</g>
</g>
<g>
	<defs>
		<rect id="SVGID_67_" x="24.643" y="405.127" width="64.43" height="19.71"/>
	</defs>
	<clipPath id="SVGID_68_">
		<use xlink:href="#SVGID_67_"  overflow="visible"/>
	</clipPath>
	<g clip-path="url(#SVGID_68_)">
		<text transform="matrix(1 0 0 1 38.3925 418.8979)" fill="#606060" font-family="'HelveticaNeue-Medium'" font-size="10">5:00 pm</text>
	</g>
</g>
<g>
	<defs>
		<rect id="SVGID_69_" x="24.643" y="425.086" width="64.43" height="19.71"/>
	</defs>
	<clipPath id="SVGID_70_">
		<use xlink:href="#SVGID_69_"  overflow="visible"/>
	</clipPath>
	<g clip-path="url(#SVGID_70_)">
		<text transform="matrix(1 0 0 1 38.3925 438.8979)" fill="#606060" font-family="'HelveticaNeue-Medium'" font-size="10">5:30 pm</text>
	</g>
</g>
<g>
	<defs>
		<rect id="SVGID_71_" x="89.823" y="425.086" width="94.092" height="59.63"/>
	</defs>
	<clipPath id="SVGID_72_">
		<use xlink:href="#SVGID_71_"  overflow="visible"/>
	</clipPath>
	<g clip-path="url(#SVGID_72_)">
		<text transform="matrix(1 0 0 1 127.3925 452.8979)" fill="#FFFFFF" font-family="'HelveticaNeue-Medium'" font-size="10">5:30             </text>
	</g>
	<g clip-path="url(#SVGID_72_)">
		<text transform="matrix(1 0 0 1 103.3925 464.8979)" fill="#FFFFFF" font-family="'HelveticaNeue-Medium'" font-size="10">BARRE BASIC</text>
	</g>
</g>
<g>
	<defs>
		<rect id="SVGID_73_" x="278.757" y="425.086" width="94.342" height="59.63"/>
	</defs>
	<clipPath id="SVGID_74_">
		<use xlink:href="#SVGID_73_"  overflow="visible"/>
	</clipPath>
	<g clip-path="url(#SVGID_74_)">
		<text transform="matrix(1 0 0 1 316.3925 452.8979)" fill="#FFFFFF" font-family="'HelveticaNeue-Medium'" font-size="10">5:30             </text>
	</g>
	<g clip-path="url(#SVGID_74_)">
		<text transform="matrix(1 0 0 1 288.3925 464.8979)"><tspan x="0" y="0" fill="#FFFFFF" font-family="'HelveticaNeue-Medium'" font-size="10">BARRE </tspan><tspan x="36.87" y="0" fill="#FFFFFF" font-family="'HelveticaNeue-Medium'" font-size="10">A</tspan><tspan x="42.629" y="0" fill="#FFFFFF" font-family="'HelveticaNeue-Medium'" font-size="10">T</tspan><tspan x="48.56" y="0" fill="#FFFFFF" font-family="'HelveticaNeue-Medium'" font-size="10">T</tspan><tspan x="53.579" y="0" fill="#FFFFFF" font-family="'HelveticaNeue-Medium'" font-size="10">ACK</tspan></text>
	</g>
</g>
<g>
	<defs>
		<rect id="SVGID_75_" x="373.349" y="425.086" width="94.342" height="59.63"/>
	</defs>
	<clipPath id="SVGID_76_">
		<use xlink:href="#SVGID_75_"  overflow="visible"/>
	</clipPath>
	<g clip-path="url(#SVGID_76_)">
		<text transform="matrix(1 0 0 1 410.3925 452.8979)" fill="#FFFFFF" font-family="'HelveticaNeue-Medium'" font-size="10">5:30             </text>
	</g>
	<g clip-path="url(#SVGID_76_)">
		<text transform="matrix(1 0 0 1 387.3925 464.8979)" fill="#FFFFFF" font-family="'HelveticaNeue-Medium'" font-size="10">BARRE BASIC</text>
	</g>
</g>
<g>
	<defs>
		<rect id="SVGID_77_" x="24.643" y="445.046" width="64.43" height="19.71"/>
	</defs>
	<clipPath id="SVGID_78_">
		<use xlink:href="#SVGID_77_"  overflow="visible"/>
	</clipPath>
	<g clip-path="url(#SVGID_78_)">
		<text transform="matrix(1 0 0 1 38.3925 458.8979)" fill="#606060" font-family="'HelveticaNeue-Medium'" font-size="10">6:00 pm</text>
	</g>
</g>
<g>
	<defs>
		<rect id="SVGID_79_" x="24.643" y="465.006" width="64.43" height="19.71"/>
	</defs>
	<clipPath id="SVGID_80_">
		<use xlink:href="#SVGID_79_"  overflow="visible"/>
	</clipPath>
	<g clip-path="url(#SVGID_80_)">
		<text transform="matrix(1 0 0 1 38.3925 478.8979)" fill="#606060" font-family="'HelveticaNeue-Medium'" font-size="10">6:30 pm</text>
	</g>
</g>
<g>
	<defs>
		<rect id="SVGID_81_" x="22.393" y="23.138" width="636" height="464"/>
	</defs>
	<clipPath id="SVGID_82_">
		<use xlink:href="#SVGID_81_"  overflow="visible"/>
	</clipPath>
	
		<line clip-path="url(#SVGID_82_)" fill="none" stroke="#EFEFEF" stroke-width="0.25" x1="184.04" y1="44.973" x2="184.04" y2="485.466"/>
	
		<line clip-path="url(#SVGID_82_)" fill="none" stroke="#EFEFEF" stroke-width="0.25" x1="278.632" y1="44.973" x2="278.632" y2="485.466"/>
	
		<line clip-path="url(#SVGID_82_)" fill="none" stroke="#EFEFEF" stroke-width="0.25" x1="373.224" y1="44.973" x2="373.224" y2="485.466"/>
	
		<line clip-path="url(#SVGID_82_)" fill="none" stroke="#EFEFEF" stroke-width="0.25" x1="467.816" y1="44.973" x2="467.816" y2="485.466"/>
	
		<line clip-path="url(#SVGID_82_)" fill="none" stroke="#EFEFEF" stroke-width="0.25" x1="562.408" y1="44.973" x2="562.408" y2="485.466"/>
	
		<line clip-path="url(#SVGID_82_)" fill="none" stroke="#E7E7E7" stroke-width="0.25" x1="23.893" y1="65.683" x2="89.448" y2="65.683"/>
	
		<line clip-path="url(#SVGID_82_)" fill="none" stroke="#EFEFEF" stroke-width="0.25" x1="89.448" y1="65.683" x2="657.5" y2="65.683"/>
	
		<line clip-path="url(#SVGID_82_)" fill="none" stroke="#E7E7E7" stroke-width="0.25" x1="23.893" y1="85.643" x2="89.448" y2="85.643"/>
	
		<line clip-path="url(#SVGID_82_)" fill="none" stroke="#EFEFEF" stroke-width="0.25" x1="89.448" y1="85.643" x2="562.908" y2="85.643"/>
	
		<line clip-path="url(#SVGID_82_)" fill="none" stroke="#E7E7E7" stroke-width="0.25" x1="23.893" y1="105.603" x2="89.448" y2="105.603"/>
	
		<line clip-path="url(#SVGID_82_)" fill="none" stroke="#EFEFEF" stroke-width="0.25" x1="89.448" y1="105.603" x2="184.54" y2="105.603"/>
	
		<line clip-path="url(#SVGID_82_)" fill="none" stroke="#EFEFEF" stroke-width="0.25" x1="278.132" y1="105.603" x2="562.908" y2="105.603"/>
	
		<line clip-path="url(#SVGID_82_)" fill="none" stroke="#E7E7E7" stroke-width="0.25" x1="23.893" y1="125.563" x2="89.948" y2="125.563"/>
	
		<line clip-path="url(#SVGID_82_)" fill="none" stroke="#EFEFEF" stroke-width="0.25" x1="278.132" y1="125.563" x2="373.724" y2="125.563"/>
	
		<line clip-path="url(#SVGID_82_)" fill="none" stroke="#EFEFEF" stroke-width="0.25" x1="467.316" y1="125.563" x2="657.5" y2="125.563"/>
	
		<line clip-path="url(#SVGID_82_)" fill="none" stroke="#E7E7E7" stroke-width="0.25" x1="23.893" y1="145.522" x2="89.948" y2="145.522"/>
	
		<line clip-path="url(#SVGID_82_)" fill="none" stroke="#EFEFEF" stroke-width="0.25" x1="183.54" y1="145.522" x2="373.724" y2="145.522"/>
	
		<line clip-path="url(#SVGID_82_)" fill="none" stroke="#EFEFEF" stroke-width="0.25" x1="467.316" y1="145.522" x2="562.908" y2="145.522"/>
	
		<line clip-path="url(#SVGID_82_)" fill="none" stroke="#E7E7E7" stroke-width="0.25" x1="23.893" y1="165.482" x2="89.448" y2="165.482"/>
	
		<line clip-path="url(#SVGID_82_)" fill="none" stroke="#EFEFEF" stroke-width="0.25" x1="89.448" y1="165.482" x2="562.908" y2="165.482"/>
	
		<line clip-path="url(#SVGID_82_)" fill="none" stroke="#E7E7E7" stroke-width="0.25" x1="23.893" y1="185.442" x2="89.448" y2="185.442"/>
	
		<line clip-path="url(#SVGID_82_)" fill="none" stroke="#EFEFEF" stroke-width="0.25" x1="89.448" y1="185.442" x2="657.5" y2="185.442"/>
	
		<line clip-path="url(#SVGID_82_)" fill="none" stroke="#E7E7E7" stroke-width="0.25" x1="23.893" y1="205.402" x2="89.448" y2="205.402"/>
	
		<line clip-path="url(#SVGID_82_)" fill="none" stroke="#EFEFEF" stroke-width="0.25" x1="89.448" y1="205.402" x2="657.5" y2="205.402"/>
	
		<line clip-path="url(#SVGID_82_)" fill="none" stroke="#E7E7E7" stroke-width="0.25" x1="23.893" y1="225.362" x2="89.448" y2="225.362"/>
	
		<line clip-path="url(#SVGID_82_)" fill="none" stroke="#EFEFEF" stroke-width="0.25" x1="89.448" y1="225.362" x2="657.5" y2="225.362"/>
	
		<line clip-path="url(#SVGID_82_)" fill="none" stroke="#E7E7E7" stroke-width="0.25" x1="23.893" y1="245.322" x2="89.448" y2="245.322"/>
	
		<line clip-path="url(#SVGID_82_)" fill="none" stroke="#EFEFEF" stroke-width="0.25" x1="89.448" y1="245.322" x2="279.132" y2="245.322"/>
	
		<line clip-path="url(#SVGID_82_)" fill="none" stroke="#EFEFEF" stroke-width="0.25" x1="467.316" y1="245.322" x2="657.5" y2="245.322"/>
	
		<line clip-path="url(#SVGID_82_)" fill="none" stroke="#E7E7E7" stroke-width="0.25" x1="23.893" y1="265.282" x2="89.448" y2="265.282"/>
	
		<line clip-path="url(#SVGID_82_)" fill="none" stroke="#EFEFEF" stroke-width="0.25" x1="89.448" y1="265.282" x2="279.132" y2="265.282"/>
	
		<line clip-path="url(#SVGID_82_)" fill="none" stroke="#EFEFEF" stroke-width="0.25" x1="467.316" y1="265.282" x2="657.5" y2="265.282"/>
	
		<line clip-path="url(#SVGID_82_)" fill="none" stroke="#E7E7E7" stroke-width="0.25" x1="23.893" y1="285.242" x2="89.448" y2="285.242"/>
	
		<line clip-path="url(#SVGID_82_)" fill="none" stroke="#EFEFEF" stroke-width="0.25" x1="89.448" y1="285.242" x2="657.5" y2="285.242"/>
	
		<line clip-path="url(#SVGID_82_)" fill="none" stroke="#E7E7E7" stroke-width="0.25" x1="23.893" y1="305.202" x2="89.448" y2="305.202"/>
	
		<line clip-path="url(#SVGID_82_)" fill="none" stroke="#EFEFEF" stroke-width="0.25" x1="89.448" y1="305.202" x2="657.5" y2="305.202"/>
	
		<line clip-path="url(#SVGID_82_)" fill="none" stroke="#E7E7E7" stroke-width="0.25" x1="23.893" y1="325.162" x2="89.448" y2="325.162"/>
	
		<line clip-path="url(#SVGID_82_)" fill="none" stroke="#EFEFEF" stroke-width="0.25" x1="89.448" y1="325.162" x2="657.5" y2="325.162"/>
	
		<line clip-path="url(#SVGID_82_)" fill="none" stroke="#E7E7E7" stroke-width="0.25" x1="23.893" y1="345.122" x2="89.448" y2="345.122"/>
	
		<line clip-path="url(#SVGID_82_)" fill="none" stroke="#EFEFEF" stroke-width="0.25" x1="89.448" y1="345.122" x2="657.5" y2="345.122"/>
	
		<line clip-path="url(#SVGID_82_)" fill="none" stroke="#E7E7E7" stroke-width="0.25" x1="23.893" y1="365.082" x2="89.448" y2="365.082"/>
	
		<line clip-path="url(#SVGID_82_)" fill="none" stroke="#EFEFEF" stroke-width="0.25" x1="89.448" y1="365.082" x2="657.5" y2="365.082"/>
	
		<line clip-path="url(#SVGID_82_)" fill="none" stroke="#E7E7E7" stroke-width="0.25" x1="23.893" y1="385.042" x2="89.448" y2="385.042"/>
	
		<line clip-path="url(#SVGID_82_)" fill="none" stroke="#EFEFEF" stroke-width="0.25" x1="89.448" y1="385.042" x2="657.5" y2="385.042"/>
	
		<line clip-path="url(#SVGID_82_)" fill="none" stroke="#E7E7E7" stroke-width="0.25" x1="23.893" y1="405.002" x2="89.448" y2="405.002"/>
	
		<line clip-path="url(#SVGID_82_)" fill="none" stroke="#EFEFEF" stroke-width="0.25" x1="89.448" y1="405.002" x2="657.5" y2="405.002"/>
	
		<line clip-path="url(#SVGID_82_)" fill="none" stroke="#E7E7E7" stroke-width="0.25" x1="23.893" y1="424.961" x2="89.448" y2="424.961"/>
	
		<line clip-path="url(#SVGID_82_)" fill="none" stroke="#EFEFEF" stroke-width="0.25" x1="89.448" y1="424.961" x2="657.5" y2="424.961"/>
	
		<line clip-path="url(#SVGID_82_)" fill="none" stroke="#E7E7E7" stroke-width="0.25" x1="23.893" y1="444.921" x2="89.948" y2="444.921"/>
	
		<line clip-path="url(#SVGID_82_)" fill="none" stroke="#EFEFEF" stroke-width="0.25" x1="183.54" y1="444.921" x2="279.132" y2="444.921"/>
	
		<line clip-path="url(#SVGID_82_)" fill="none" stroke="#EFEFEF" stroke-width="0.25" x1="467.316" y1="444.921" x2="657.5" y2="444.921"/>
	
		<line clip-path="url(#SVGID_82_)" fill="none" stroke="#E7E7E7" stroke-width="0.25" x1="23.893" y1="464.881" x2="89.948" y2="464.881"/>
	
		<line clip-path="url(#SVGID_82_)" fill="none" stroke="#EFEFEF" stroke-width="0.25" x1="183.54" y1="464.881" x2="279.132" y2="464.881"/>
	
		<line clip-path="url(#SVGID_82_)" fill="none" stroke="#EFEFEF" stroke-width="0.25" x1="467.316" y1="464.881" x2="657.5" y2="464.881"/>
	
		<line clip-path="url(#SVGID_82_)" fill="none" stroke="#ADADAD" stroke-width="0.75" x1="89.448" y1="44.973" x2="89.448" y2="485.466"/>
	
		<line clip-path="url(#SVGID_82_)" fill="none" stroke="#ADADAD" stroke-width="0.75" x1="23.893" y1="45.473" x2="657.5" y2="45.473"/>
	
		<line clip-path="url(#SVGID_82_)" fill="none" stroke="#D0CFCF" stroke-width="0.5" x1="24.393" y1="24.638" x2="24.393" y2="45.473"/>
	
		<line clip-path="url(#SVGID_82_)" fill="none" stroke="#D0CFCF" stroke-width="0.5" x1="24.393" y1="45.473" x2="24.393" y2="485.466"/>
	<line clip-path="url(#SVGID_82_)" fill="none" stroke="#D0CFCF" stroke-width="0.5" x1="657" y1="24.638" x2="657" y2="45.473"/>
	<line clip-path="url(#SVGID_82_)" fill="none" stroke="#D0CFCF" stroke-width="0.5" x1="657" y1="45.473" x2="657" y2="485.466"/>
	
		<line clip-path="url(#SVGID_82_)" fill="none" stroke="#D0CFCF" stroke-width="0.5" x1="23.893" y1="25.138" x2="657.5" y2="25.138"/>
	
		<line clip-path="url(#SVGID_82_)" fill="none" stroke="#D0CFCF" stroke-width="0.5" x1="23.893" y1="484.966" x2="89.448" y2="484.966"/>
	
		<line clip-path="url(#SVGID_82_)" fill="none" stroke="#D0CFCF" stroke-width="0.5" x1="89.448" y1="484.966" x2="657.5" y2="484.966"/>
</g>
</svg>
